<?xml version="1.0" standalone="no"?>
<!DOCTYPE svg PUBLIC "-//W3C//DTD SVG 20010904//EN"
 "http://www.w3.org/TR/2001/REC-SVG-20010904/DTD/svg10.dtd">
<svg version="1.0" xmlns="http://www.w3.org/2000/svg"
 width="1024.000000pt" height="1024.000000pt" viewBox="0 0 1024.000000 1024.000000"
 preserveAspectRatio="xMidYMid meet">

<g transform="translate(0.000000,1024.000000) scale(0.100000,-0.100000)"
fill="#000000" stroke="none">
<path d="M4600 10199 c0 -38 -7 -48 -117 -166 -65 -69 -163 -162 -218 -208
-87 -73 -127 -115 -190 -200 -13 -18 -14 -16 -15 38 0 54 -2 58 -20 53 -11 -3
-28 -8 -39 -11 -17 -5 -19 -20 -25 -158 -4 -84 -12 -177 -19 -207 -11 -52 -12
-47 -15 103 -2 118 -6 157 -15 154 -31 -10 -66 -214 -67 -390 0 -67 6 -106 24
-160 13 -40 38 -119 56 -176 17 -57 34 -110 37 -118 4 -10 -6 -13 -40 -13 -38
0 -58 -8 -121 -51 -148 -99 -216 -224 -216 -400 0 -137 71 -300 180 -410 111
-112 276 -166 383 -124 13 6 17 2 17 -16 0 -13 18 -77 39 -141 l39 -118 -232
0 c-496 0 -900 -54 -1174 -156 -608 -227 -955 -705 -1086 -1494 -39 -238 -55
-432 -67 -820 -17 -545 -2 -1108 37 -1353 l6 -38 -408 2 -408 1 -31 -34 c-40
-43 -67 -109 -240 -583 -202 -552 -305 -805 -421 -1030 -22 -44 -77 -150 -121
-235 -94 -183 -113 -249 -113 -395 l0 -105 43 0 c156 0 224 93 367 500 131
371 448 1418 461 1522 14 110 35 172 71 214 45 51 83 57 308 50 340 -12 911
-36 1013 -42 l97 -7 0 -238 0 -239 40 0 c23 0 59 9 82 21 l40 21 -6 -79 c-3
-43 -8 -133 -12 -200 l-6 -123 31 0 c17 0 31 -2 31 -5 0 -3 5 -47 10 -98 l11
-93 -40 -84 c-78 -167 -118 -335 -104 -437 5 -35 14 -49 49 -78 26 -21 47 -49
52 -68 5 -18 5 -120 2 -227 -17 -454 30 -843 130 -1084 42 -100 58 -116 114
-116 34 0 79 17 207 79 90 44 199 92 242 106 43 14 232 59 420 100 188 40 432
96 542 123 227 57 361 84 520 106 127 18 317 37 321 33 2 -1 -2 -22 -7 -46 -5
-24 -7 -46 -4 -50 13 -13 184 -1 260 18 45 12 136 49 210 85 221 110 233 113
852 141 183 8 520 31 750 50 587 49 537 42 564 72 22 23 24 33 23 121 -1 54
-14 187 -28 297 -62 464 -78 592 -111 927 -40 404 -73 708 -81 756 -4 27 -2
32 15 32 11 0 21 -7 23 -16 2 -11 9 -5 20 20 l18 36 -50 0 c-43 0 -50 3 -50
20 0 18 7 20 80 20 l80 0 0 43 c0 23 -7 69 -15 102 -13 47 -187 487 -269 677
-16 36 -16 37 12 56 15 11 46 29 70 41 38 19 48 21 80 10 83 -28 186 -172 240
-339 53 -160 114 -517 91 -531 -6 -4 -38 -12 -71 -19 -66 -14 -78 -24 -48 -40
27 -14 25 -22 -10 -42 -23 -13 -30 -24 -30 -47 0 -43 23 -61 79 -61 39 0 60 8
110 40 89 58 168 96 242 117 59 16 111 18 624 17 308 0 652 -6 764 -13 112 -6
206 -10 208 -7 9 9 -19 87 -40 112 -47 54 -78 57 -711 62 l-579 4 162 64 c90
35 225 96 301 135 212 107 253 163 251 343 -1 144 -33 310 -176 911 -132 556
-204 807 -332 1160 -254 702 -399 928 -741 1155 -185 123 -397 220 -707 324
l-180 61 -3 62 c-2 34 2 81 8 103 10 38 13 40 50 40 147 0 374 87 445 172 97
115 126 300 72 456 -45 129 -102 216 -204 310 l-93 85 0 58 0 57 -50 31 c-47
29 -50 33 -50 71 0 23 -9 59 -21 81 -22 45 -26 42 37 24 29 -8 33 5 46 144
l11 115 -61 55 c-33 31 -64 67 -68 81 -20 69 -200 316 -290 396 -43 38 -82 83
-90 103 -8 20 -25 46 -36 58 l-21 23 -351 0 c-330 0 -351 -1 -370 -19 -21 -19
-23 -19 -91 -1 -64 17 -119 19 -632 19 l-563 1 0 -41z m915 -19 c38 -17 39
-18 15 -23 -14 -4 -65 -11 -115 -17 -49 -6 -108 -13 -130 -16 l-40 -5 38 35
c63 56 141 65 232 26z m510 -157 c32 -35 33 -39 18 -50 -14 -11 -21 -9 -41 10
-13 12 -33 34 -44 50 l-19 27 26 0 c17 0 38 -12 60 -37z m-764 -90 c36 -13 81
-17 237 -17 182 -1 195 0 209 19 12 16 16 17 21 5 3 -8 43 -71 90 -140 46 -69
92 -145 102 -170 12 -31 24 -46 39 -48 13 -2 21 -11 21 -22 0 -14 11 -22 39
-30 30 -8 42 -17 50 -40 7 -21 17 -30 31 -30 13 0 49 -25 86 -59 116 -106 242
-149 404 -136 47 3 95 9 107 11 21 6 22 4 26 -138 2 -101 13 -194 35 -319 81
-454 84 -853 8 -1150 -59 -232 -192 -463 -346 -602 -97 -87 -329 -186 -532
-227 -473 -97 -985 26 -1238 297 -258 276 -440 779 -440 1216 0 254 50 444
160 617 45 70 49 80 53 152 7 115 20 130 140 164 39 11 75 30 110 60 29 24 73
55 100 69 33 18 47 31 47 47 0 11 21 43 46 70 32 34 69 97 126 214 64 131 87
170 112 185 38 23 99 24 157 2z m1438 -20 c0 -25 -1 -26 -9 -8 -12 27 -12 35
0 35 6 0 10 -12 9 -27z m-1819 -155 c0 -4 -12 -19 -27 -33 -26 -23 -29 -24
-40 -8 -18 24 -17 29 15 58 25 23 28 24 40 8 6 -9 12 -20 12 -25z m2070 -224
c16 -40 12 -72 -10 -84 -19 -10 -20 -8 -20 50 0 63 13 79 30 34z m-80 -155 c0
-5 -4 -9 -9 -9 -5 0 -17 -3 -26 -7 -15 -5 -16 -3 -6 15 11 20 41 21 41 1z
m-40 -40 c0 -5 -4 -9 -9 -9 -5 0 -17 -3 -26 -7 -15 -5 -16 -3 -6 15 11 20 41
21 41 1z m60 -56 c6 -21 10 -60 8 -88 l-3 -50 -21 40 c-12 22 -24 61 -28 88
-7 43 -5 47 13 47 15 0 23 -10 31 -37z m-2906 -110 c12 -59 19 -273 9 -273
-21 0 -36 66 -40 183 -5 100 -3 117 10 117 8 0 17 -12 21 -27z m2847 -58 c17
-6 19 -9 8 -16 -21 -13 -65 -11 -78 4 -6 8 -14 29 -18 48 l-6 34 36 -32 c19
-17 46 -34 58 -38z m243 -81 c11 -28 -64 -120 -141 -173 -35 -24 -30 -28 -49
39 -4 15 4 24 34 39 21 11 61 40 88 65 55 51 59 53 68 30z m159 -289 c90 -69
140 -169 159 -318 11 -91 11 -93 -17 -154 -61 -137 -197 -213 -381 -213 -62 0
-53 -30 -85 307 -24 263 -22 294 28 354 38 45 76 58 169 59 78 0 83 -2 127
-35z m-3093 -485 l0 -380 -73 0 c-61 0 -78 4 -112 26 -132 88 -212 219 -230
379 -8 74 17 151 74 223 60 75 183 129 304 131 l37 1 0 -380z m2758 -648 c10
-10 47 -24 81 -31 34 -7 113 -29 174 -50 500 -171 858 -504 1135 -1057 198
-396 328 -834 496 -1677 31 -153 67 -321 80 -375 45 -178 59 -271 53 -359 -6
-87 -20 -124 -60 -161 -26 -24 -143 -72 -176 -72 -11 0 -63 -22 -117 -50 -91
-47 -155 -63 -168 -42 -2 4 58 66 135 137 156 144 205 202 246 290 26 56 28
68 27 185 0 117 -5 143 -61 385 -198 843 -290 1117 -544 1625 -151 301 -237
442 -347 566 -39 45 -85 110 -101 144 -55 116 -122 163 -230 162 -36 -1 -86
-8 -110 -17 -24 -8 -45 -14 -47 -12 -2 1 -21 39 -44 84 -53 106 -123 163 -240
192 -25 7 -84 26 -132 43 -91 31 -95 36 -82 86 8 27 9 27 32 4z m227 -204 c46
-21 65 -74 65 -186 0 -110 -4 -118 -72 -146 l-37 -16 -3 163 c-2 89 -7 170
-12 180 -6 13 -4 17 12 17 12 0 33 -5 47 -12z m-3137 -61 c7 -5 12 -16 10 -24
-5 -25 -270 -212 -380 -268 -133 -69 -209 -136 -247 -219 -16 -34 -39 -71 -52
-83 -35 -31 -103 -46 -175 -38 -68 7 -147 -9 -249 -52 -226 -94 -369 -255
-455 -511 -51 -152 -110 -488 -154 -882 -40 -348 -92 -1372 -75 -1450 4 -19
21 -46 36 -59 l28 -25 2 25 c21 206 66 881 73 1099 18 512 37 751 81 978 48
246 169 522 230 522 12 0 19 7 19 20 0 23 69 77 190 150 128 77 252 108 324
80 l26 -9 -37 -83 c-272 -621 -515 -1421 -663 -2186 -35 -184 -120 -704 -120
-739 0 -25 -484 -9 -500 16 -11 19 -49 224 -71 387 -26 191 -37 718 -20 981
24 367 75 804 117 989 191 856 800 1354 1704 1393 180 8 341 2 358 -12z m266
-12 c3 -10 -5 -20 -24 -30 -41 -21 -44 -19 -20 15 24 33 35 37 44 15z m146
-51 c26 -24 58 -72 91 -138 l51 -101 -50 -3 c-47 -3 -51 -5 -56 -32 -3 -17 -9
-43 -12 -60 -5 -25 -10 -30 -34 -30 -19 0 -33 7 -40 19 -13 26 -14 381 0 381
5 0 28 -16 50 -36z m-450 -205 c0 -5 -4 -9 -9 -9 -5 0 -17 -3 -26 -7 -15 -5
-16 -3 -6 15 11 20 41 21 41 1z m-76 -40 c-22 -25 -57 -43 -99 -53 l-29 -7 19
22 c21 23 90 58 114 59 10 0 9 -5 -5 -21z m722 -30 c32 -36 135 -105 219 -147
112 -56 235 -98 443 -152 l44 -11 -7 -42 c-11 -70 -14 -74 -82 -128 -39 -31
-93 -91 -133 -145 -38 -50 -81 -100 -97 -111 -57 -40 -60 -39 -114 45 -65 101
-161 290 -203 400 -47 120 -106 312 -97 312 5 0 16 -10 27 -21z m2600 -66 c-2
-10 -7 -33 -11 -50 -5 -27 -13 -34 -44 -43 -68 -18 -121 -96 -121 -179 0 -68
29 -141 79 -197 40 -45 66 -108 59 -142 -5 -24 -144 118 -186 190 -38 63 -76
171 -86 238 l-7 45 32 -30 c20 -19 33 -26 36 -18 13 35 85 134 114 155 61 45
145 64 135 31z m-696 -44 c0 -4 -25 -49 -56 -100 -31 -51 -86 -149 -121 -218
-69 -133 -91 -164 -135 -187 -25 -13 -28 -12 -58 26 -17 22 -67 60 -113 87
-86 51 -150 108 -180 161 l-18 31 43 11 c237 60 434 129 553 194 53 28 62 31
73 17 6 -8 12 -18 12 -22z m-1963 -152 c39 -83 119 -250 176 -369 58 -119 110
-231 115 -248 10 -28 14 -30 62 -30 28 0 65 7 83 16 18 9 86 71 152 139 66 67
136 131 156 142 l36 21 32 -98 c38 -114 85 -189 143 -228 34 -22 54 -28 117
-30 135 -5 169 30 216 229 40 163 44 177 60 182 9 4 22 -7 37 -31 12 -20 45
-61 71 -91 48 -52 49 -53 43 -22 -20 101 -20 94 0 83 10 -6 33 -37 49 -69 26
-47 36 -59 60 -61 54 -7 112 18 156 65 40 43 55 73 114 216 25 61 71 117 96
117 12 0 12 -37 -6 -310 -30 -466 -81 -1057 -131 -1520 -34 -319 -123 -1078
-130 -1113 -3 -15 -16 -34 -28 -42 -19 -13 -284 -61 -291 -53 -2 2 35 99 81
215 113 286 167 476 190 666 6 56 6 57 -18 57 -37 0 -54 -26 -78 -120 -130
-516 -241 -762 -387 -860 -44 -29 -52 -31 -103 -25 -30 4 -67 13 -81 20 -29
15 -28 14 -140 300 -45 116 -91 228 -101 250 -20 40 -138 161 -138 141 0 -58
82 -310 162 -501 51 -122 95 -271 83 -283 -9 -9 -140 -15 -170 -8 -19 5 -25
13 -25 35 0 16 -9 71 -19 122 -11 52 -31 166 -45 253 -49 298 -108 539 -231
936 -88 285 -117 405 -160 650 -47 264 -89 466 -119 572 -36 124 -43 138 -65
138 -16 0 -25 16 -46 83 -58 181 -66 234 -72 430 -5 155 -3 187 8 187 8 0 44
-64 86 -153z m-951 106 c11 -46 15 -46 55 -7 l39 38 0 -32 c0 -39 33 -63 49
-35 8 14 10 8 11 -29 l0 -48 -42 0 c-24 -1 -59 -9 -78 -20 l-35 -18 -32 30
-31 30 -62 -83 c-116 -158 -138 -213 -466 -1187 -129 -382 -140 -406 -143
-300 -2 72 128 487 259 828 71 183 247 596 299 698 35 70 74 118 116 143 41
26 53 24 61 -8z m274 2 c0 -14 -2 -25 -4 -25 -2 0 -11 11 -20 25 -16 24 -16
25 4 25 15 0 20 -7 20 -25z m100 -32 c0 -41 -1 -41 -24 5 -16 31 -16 32 4 32
16 0 20 -7 20 -37z m1702 -173 c51 -57 80 -138 82 -226 1 -81 -5 -92 -71 -131
-33 -19 -60 -26 -101 -27 l-56 -1 -36 80 c-30 70 -35 90 -35 160 0 44 4 102 8
128 10 59 28 69 112 63 56 -4 63 -7 97 -46z m-1546 13 c-3 -10 -24 -88 -46
-173 -23 -85 -43 -163 -46 -172 -4 -13 0 -18 15 -18 14 0 21 6 21 20 0 18 3
19 20 10 20 -11 20 -12 -10 -51 -62 -77 -85 -339 -42 -477 20 -65 31 -81 106
-161 46 -48 91 -102 100 -119 34 -66 47 -148 56 -352 10 -218 31 -335 83 -465
33 -81 270 -574 340 -708 54 -102 71 -167 49 -181 -16 -10 -221 357 -371 664
-49 102 -118 227 -152 279 -71 107 -81 151 -55 227 21 63 22 269 1 362 -37
161 -154 269 -321 297 -47 8 -94 25 -94 34 0 4 16 15 35 24 28 13 35 22 35 45
0 16 18 105 39 198 59 252 99 449 111 549 13 103 32 150 69 170 37 20 64 19
57 -2z m2979 -462 c4 -21 -10 -75 -58 -207 -116 -320 -159 -464 -165 -540 -2
-39 0 -79 5 -88 8 -15 16 -9 53 41 74 98 133 155 185 179 64 30 128 31 175 3
31 -19 244 -229 238 -234 -13 -11 -117 -57 -173 -78 -159 -57 -444 -104 -481
-79 -6 4 -17 27 -25 52 -18 59 -45 66 -51 13 -3 -21 -39 -156 -81 -300 -42
-145 -91 -318 -108 -385 -30 -122 -79 -244 -87 -220 -15 45 74 521 132 707 18
61 50 180 71 265 74 312 224 714 322 862 31 46 39 47 48 9z m-2455 -661 c0
-33 -4 -60 -10 -60 -6 0 -10 27 -10 60 0 33 4 60 10 60 6 0 10 -27 10 -60z
m30 -160 c0 -10 21 -122 46 -247 42 -210 69 -320 184 -767 62 -243 100 -488
100 -646 0 -32 5 -60 10 -62 6 -2 17 -44 25 -93 9 -50 18 -101 21 -115 l6 -25
18 25 19 25 10 -26 c25 -68 32 -180 41 -694 15 -830 26 -1010 105 -1722 7 -55
9 -52 -59 -68 -25 -5 -34 0 -75 46 -47 52 -48 53 -115 57 -99 6 -176 -9 -635
-124 -227 -58 -529 -127 -670 -155 -398 -78 -543 -119 -746 -211 -55 -25 -116
-49 -136 -52 -44 -8 -38 -24 -73 204 -42 274 -57 452 -63 729 l-6 263 24 -7
c13 -3 37 -11 53 -17 l29 -12 -7 -80 c-3 -45 -9 -91 -12 -103 -6 -22 -5 -22
25 -12 24 8 33 20 41 49 21 80 50 98 191 120 42 7 83 16 90 21 24 14 -3 41
-57 58 -37 12 -50 21 -52 39 -3 21 0 22 58 22 l62 0 -6 30 c-19 98 -14 90 -58
90 l-40 0 7 45 c10 67 -1 103 -37 121 l-30 16 6 -64 c4 -35 9 -79 12 -100 5
-34 4 -36 -25 -42 -17 -3 -45 -9 -62 -12 l-31 -6 6 38 c3 22 8 63 12 92 l6 52
-31 0 -30 0 -3 -97 c-3 -110 -13 -122 -68 -83 -22 16 -34 38 -50 91 -17 55
-26 72 -46 79 -13 6 -35 14 -48 19 l-24 10 44 126 c24 69 51 164 60 210 l17
83 -26 34 c-25 33 -57 98 -71 145 -6 19 -1 23 48 37 163 48 365 66 583 53 195
-11 200 -8 234 193 31 182 33 188 117 238 l72 44 0 89 0 89 659 0 659 0 4 118
c1 64 0 119 -4 120 -5 2 -8 16 -8 30 0 26 -17 96 -128 532 -100 390 -165 745
-192 1050 -5 63 -10 118 -10 123 0 4 7 7 15 7 8 0 15 -9 15 -20z m3285 -214
c36 -73 67 -182 79 -273 l7 -53 -31 0 c-29 0 -30 1 -30 50 0 37 -9 68 -34 118
-43 84 -66 163 -66 220 0 45 0 45 20 27 12 -11 36 -51 55 -89z m-4081 59 c5
-24 -1 -60 -18 -117 -30 -99 -43 -173 -51 -288 -9 -122 -18 -171 -95 -505
-113 -491 -147 -655 -160 -760 -18 -153 -52 -204 -142 -213 l-51 -5 20 34 c11
19 35 60 52 92 21 37 39 57 51 57 16 0 18 13 23 138 4 118 9 150 35 227 58
172 173 727 208 998 15 119 20 137 36 137 10 0 18 1 18 3 0 1 9 54 20 117 11
63 20 116 20 118 0 1 6 2 14 2 8 0 17 -15 20 -35z m-100 -132 c6 -15 -3 -43
-13 -43 -7 0 -31 58 -31 73 0 11 39 -16 44 -30z m175 -9 c6 -6 -1 -11 -26 -18
-19 -6 -23 -4 -23 14 0 18 4 20 23 14 12 -3 24 -8 26 -10z m-1153 -141 c-2
-10 -10 -45 -16 -78 -16 -86 -21 -95 -31 -60 -10 34 -3 87 18 128 15 30 37 37
29 10z m4928 -129 l17 -37 30 29 31 29 -7 -40 c-13 -70 -27 -83 -112 -109 -22
-7 -23 -5 -23 49 0 52 22 115 40 115 4 0 14 -16 24 -36z m596 -81 c11 -14 17
-29 13 -33 -4 -3 -55 -24 -113 -45 -58 -22 -206 -83 -330 -136 -124 -54 -228
-94 -231 -91 -4 4 -10 17 -14 30 -5 16 -2 24 12 29 47 16 361 167 426 204 134
77 200 89 237 42z m-910 -173 c9 -17 7 -20 -17 -26 -16 -3 -37 -8 -48 -10 -18
-5 -18 -4 -2 6 9 6 17 20 17 30 0 27 36 26 50 0z m-4730 -70 c0 -27 -4 -50
-10 -50 -5 0 -10 23 -10 50 0 28 5 50 10 50 6 0 10 -22 10 -50z m5186 -402
c13 -24 156 -540 151 -544 -10 -8 -44 -12 -54 -6 -15 9 -139 456 -178 637 -5
24 59 -45 81 -87z m-640 -83 l29 -20 -75 -7 c-41 -3 -167 -11 -280 -18 -113
-6 -218 -13 -233 -17 -26 -5 -28 -3 -25 18 5 34 66 49 233 59 217 12 316 8
351 -15z m-786 -75 c0 -27 -4 -50 -10 -50 -5 0 -10 23 -10 50 0 28 5 50 10 50
6 0 10 -22 10 -50z m817 -61 c106 -51 156 -168 178 -416 l6 -72 -43 -11 c-171
-43 -271 -84 -366 -148 -79 -54 -167 -153 -188 -211 -31 -89 -32 -91 -59 -91
-18 0 -28 7 -35 26 -17 44 -11 67 36 134 52 76 84 167 63 181 -8 5 -30 8 -49
7 -39 -3 -61 -31 -124 -154 -28 -55 -36 -83 -36 -123 0 -48 -1 -51 -19 -42
-20 11 -41 60 -41 96 0 12 25 60 56 106 53 79 128 219 120 226 -1 2 -25 -5
-51 -14 -88 -33 -187 -144 -226 -257 -14 -39 -78 -120 -79 -100 0 6 9 46 20
89 31 122 78 195 201 315 113 111 141 154 154 241 l7 47 -54 6 c-108 14 -109
14 -106 49 3 30 8 34 91 65 180 67 457 93 544 51z m-3495 -173 c33 -3 81 -6
105 -6 45 0 106 -20 117 -39 5 -8 -43 -11 -168 -11 l-176 0 0 44 c0 63 18 146
38 175 17 26 17 25 20 -65 l3 -91 61 -7z m-462 50 c0 -40 -5 -60 -21 -77 -18
-22 -20 -22 -15 -4 2 11 7 46 11 78 8 72 25 75 25 3z m1510 29 c13 -16 6 -50
-9 -41 -11 7 -21 56 -11 56 4 0 13 -7 20 -15z m3424 -10 c-4 -8 -10 -15 -14
-15 -4 0 -10 7 -14 15 -4 10 1 15 14 15 13 0 18 -5 14 -15z m-3590 -53 c13
-27 42 -63 63 -80 21 -18 52 -45 70 -60 17 -15 34 -41 38 -58 l6 -32 -563 -4
c-408 -4 -570 -2 -588 6 -20 9 -25 19 -23 44 3 66 -6 65 333 57 168 -4 309
-11 315 -16 5 -5 89 -9 187 -9 l179 0 -15 28 c-23 45 -40 53 -126 64 -44 6
-80 14 -80 19 0 4 17 13 38 18 20 5 56 15 80 21 31 8 42 16 42 30 0 34 19 22
44 -28z m1876 -163 c0 -21 -18 -58 -55 -114 -30 -45 -73 -122 -96 -170 -40
-85 -99 -289 -87 -301 4 -3 26 -10 49 -15 37 -9 45 -7 56 7 11 15 13 14 23
-12 31 -85 67 -116 160 -138 257 -59 242 -58 280 -21 14 14 47 60 73 103 84
141 201 258 328 327 46 25 52 26 73 12 20 -14 24 -26 30 -113 17 -243 80 -857
117 -1144 63 -492 68 -540 69 -617 0 -83 16 -73 -155 -97 -275 -40 -720 -73
-1175 -86 -386 -12 -474 -20 -575 -57 -38 -13 -103 -32 -142 -41 -57 -13 -73
-20 -73 -34 0 -11 -7 -18 -19 -18 -22 0 -20 -6 -70 270 -93 509 -111 658 -118
965 -5 255 0 392 33 855 15 209 16 216 43 250 50 62 80 76 183 84 51 4 237 31
413 61 308 52 455 71 578 74 l57 1 0 -31z m-4186 -4 c-4 -8 -10 -15 -14 -15
-4 0 -10 7 -14 15 -4 10 1 15 14 15 13 0 18 -5 14 -15z m977 -43 c-79 -101
-123 -122 -251 -122 -68 0 -79 14 -22 29 20 5 57 15 82 21 62 16 145 58 171
86 38 41 54 29 20 -14z m-720 -103 c67 -22 119 -48 119 -60 0 -10 -93 -66
-157 -95 l-55 -24 6 38 c3 20 8 65 12 100 3 34 7 62 8 62 2 0 32 -9 67 -21z
m777 -138 c35 -22 32 -292 -3 -331 -9 -9 -38 -29 -66 -44 -58 -32 -88 -34
-241 -16 -84 9 -139 9 -249 0 -101 -8 -144 -8 -149 -1 -3 6 -14 51 -24 99
l-18 89 25 49 c15 30 36 55 52 62 15 7 115 28 224 47 108 19 214 38 236 44 51
12 196 13 213 2z m-448 -1541 c0 -13 -7 -20 -20 -20 -13 0 -20 7 -20 20 0 13
7 20 20 20 13 0 20 -7 20 -20z"/>
<path d="M5664 8806 c-46 -20 -92 -83 -114 -155 -31 -98 -24 -285 11 -307 17
-10 69 17 74 40 2 11 6 64 8 116 2 81 41 269 53 258 6 -6 -33 -598 -39 -605
-4 -3 -7 11 -7 33 0 75 -11 114 -31 114 -37 0 -59 -57 -59 -152 l0 -87 -30 11
c-20 7 -38 24 -51 49 -17 34 -22 38 -39 29 -19 -10 -20 -7 -20 54 0 60 22 262
36 329 5 26 3 28 -18 25 -17 -2 -32 -21 -60 -73 -54 -102 -72 -167 -72 -265 0
-71 4 -95 26 -142 23 -50 31 -58 67 -68 22 -6 65 -24 96 -40 83 -43 157 -42
216 3 24 18 51 46 61 63 29 50 41 188 35 434 -3 185 -8 236 -24 285 -18 57
-20 60 -53 62 -19 2 -49 -3 -66 -11z"/>
<path d="M5523 7797 c-127 -49 -250 -220 -304 -424 -20 -74 -21 -89 -10 -138
19 -83 42 -104 126 -115 159 -21 435 -7 512 25 81 34 99 233 39 422 -23 71
-34 90 -84 140 -32 32 -75 67 -97 78 -48 23 -138 29 -182 12z m112 -157 c67
-42 133 -182 160 -342 l6 -38 -231 0 c-126 0 -230 2 -230 4 0 3 5 40 11 83 14
100 56 190 123 259 45 47 57 54 90 54 21 0 53 -9 71 -20z"/>
<path d="M5735 6026 c-16 -11 -17 -22 -12 -92 7 -93 53 -256 177 -627 112
-336 135 -377 207 -377 55 0 55 2 -12 245 -93 337 -236 827 -246 848 -12 21
-86 24 -114 3z"/>
<path d="M5476 5977 c-16 -17 -33 -67 -65 -192 -23 -94 -69 -260 -101 -370
-122 -415 -169 -630 -177 -817 -5 -109 -4 -128 9 -128 28 0 48 37 69 126 11
49 54 208 94 354 41 146 97 351 125 455 48 178 154 548 167 580 4 12 -5 15
-46 15 -41 0 -57 -5 -75 -23z"/>
<path d="M5122 4440 c-1 -14 3 -43 7 -65 6 -26 9 -31 9 -15 1 14 -3 43 -7 65
-6 26 -9 31 -9 15z"/>
<path d="M3212 2643 c-20 -38 -23 -107 -13 -279 6 -99 14 -203 17 -231 6 -49
5 -53 -15 -53 -16 0 -21 6 -21 28 0 36 -28 62 -66 62 -54 0 -56 -7 -40 -114 7
-53 21 -107 29 -120 37 -56 203 -40 236 22 21 40 9 588 -14 662 -12 37 -97 54
-113 23z"/>
<path d="M4005 2635 c-150 -24 -233 -63 -306 -143 l-44 -47 53 -3 c33 -2 103
8 185 27 200 45 365 67 650 87 l97 6 0 38 0 37 -92 7 c-147 10 -456 5 -543 -9z"/>
<path d="M3980 1965 c-103 -29 -172 -87 -195 -162 -8 -28 -11 -28 61 -3 145
51 380 73 534 52 41 -6 75 -10 76 -9 2 1 -2 24 -8 50 -8 39 -14 48 -36 53 -15
3 -43 10 -62 16 -65 18 -309 20 -370 3z"/>
<path d="M5945 2695 c-150 -28 -227 -57 -260 -96 -57 -68 -26 -73 208 -33 139
24 168 26 339 21 166 -5 188 -4 201 11 30 36 28 41 -24 67 -115 59 -266 68
-464 30z"/>
<path d="M9784 3550 c-37 -15 -62 -58 -70 -118 -20 -159 55 -918 150 -1512 36
-223 42 -278 76 -650 54 -596 104 -859 207 -1094 20 -44 49 -101 65 -126 l29
-45 -4 310 c-4 301 -5 315 -36 460 -45 215 -56 284 -100 626 -22 168 -60 426
-85 575 -80 483 -104 742 -113 1242 l-6 342 -46 -1 c-25 0 -56 -4 -67 -9z"/>
<path d="M7335 1004 c-241 -40 -413 -124 -523 -256 -88 -105 -132 -233 -134
-388 -1 -97 7 -135 43 -190 52 -82 117 -122 247 -150 77 -17 129 -20 447 -20
334 0 366 2 435 21 172 47 314 156 338 258 38 167 -12 376 -121 501 -61 70
-240 166 -372 200 -79 21 -292 35 -360 24z m438 -186 c184 -87 287 -251 287
-459 0 -54 -2 -59 -42 -94 -53 -49 -181 -108 -283 -132 -66 -15 -121 -18 -315
-18 -139 1 -265 6 -308 13 -166 28 -273 101 -306 210 -7 21 -5 22 41 22 27 0
105 -7 173 -17 155 -20 457 -23 555 -5 137 25 309 88 368 134 18 13 18 17 3
51 -19 47 -38 47 -137 6 -108 -44 -249 -78 -374 -91 -178 -17 -511 6 -564 39
-21 13 -22 19 -16 61 9 63 26 92 85 151 65 65 187 126 305 151 74 16 122 19
270 17 l180 -3 78 -36z"/>
</g>
</svg>
